<svg xmlns="http://www.w3.org/2000/svg" viewBox="0 0 161.78 20.96"><defs><style>.cls-1{fill:#00adee;}.cls-2{fill:#01aeee;}.cls-3{fill:#03aeee;}.cls-4{fill:#01adee;}</style></defs><title>logoAsset 1</title><g id="Layer_2" data-name="Layer 2"><g id="main_page" data-name="main page"><path class="cls-1" d="M41.19,20.56c-2,.59-3.14-.13-4.07-1.92C35.73,16,34,13.46,32.5,10.88c-.21-.35-.39-.72-.61-1.15,1.28-.15,2.44-.24,3.59-.43a3,3,0,0,0,2.69-3.11c.08-2-.73-3.15-2.46-3.61a21.21,21.21,0,0,0-5.48-.25c-.89,0-1.22-.22-1.23-1.17S29.34,0,30.23,0c2.06.12,4.14-.18,6.2.23a5.35,5.35,0,0,1,4.57,5A5.21,5.21,0,0,1,37.5,11c-1.32.47-1.25.89-.62,1.91,1.51,2.44,2.9,4.95,4.34,7.43C41.23,20.4,41.2,20.46,41.19,20.56Z"/><path class="cls-1" d="M109.06,20.54c-2.59.44-2.59.44-3.89-1.7L99.66,9.72c1.27-.14,2.39-.23,3.49-.4A3,3,0,0,0,106,6.1a3.14,3.14,0,0,0-2.69-3.56A22.73,22.73,0,0,0,98,2.34c-.91,0-1.1-.34-1.09-1.16S97-.06,98,0c2.11.14,4.24-.18,6.34.24a5.34,5.34,0,0,1,4.56,5A5.18,5.18,0,0,1,105.47,11c-1.45.52-1.33,1-.64,2.09,1.5,2.39,2.86,4.87,4.27,7.31C109.11,20.43,109.07,20.49,109.06,20.54Z"/><path class="cls-2" d="M57.92,11.9c0,2.59,0,5.18,0,7.76,0,1-.23,1.29-1.24,1.3s-1.33-.31-1.32-1.35c.05-5.08,0-10.16,0-15.24,0-2.11.29-1.81-1.9-1.84-1,0-2-.06-3,0s-1-.54-1-1.24S49.37,0,50.47,0q6.14.07,12.28,0c1.08,0,.92.62.93,1.27s.12,1.33-.95,1.27c-1.27-.08-2.54,0-3.81,0-.83,0-1,.29-1,1.06C57.94,6.34,57.92,9.12,57.92,11.9Z"/><path class="cls-3" d="M124.47,2.53c-1.37,0-2.74-.06-4.1,0-1,.06-1-.53-1-1.24s-.2-1.33.91-1.3c2.83.06,5.65,0,8.48,0,1.16,0,.78.79.84,1.37s.05,1.21-.9,1.17C127.3,2.48,125.88,2.53,124.47,2.53Z"/><path class="cls-3" d="M124.45,18.42c1.41,0,2.83.05,4.23,0,1.08-.05.93.63.94,1.28s.06,1.27-1,1.25q-4.16-.09-8.33,0c-1.08,0-.91-.63-.93-1.29s-.08-1.31,1-1.25C121.71,18.48,123.08,18.42,124.45,18.42Z"/><path class="cls-1" d="M124.33,11.68c-1.36,0-2.72,0-4.08,0-1,0-.85-.62-.85-1.22s-.15-1.23.85-1.22c2.86,0,5.73,0,8.59,0,1,0,.75.73.77,1.28s.14,1.16-.77,1.14C127.33,11.65,125.83,11.68,124.33,11.68Z"/><path class="cls-4" d="M80.44,0,68.22,20.82H92Zm-.05,4.39,7.91,14.23H72Z"/><path class="cls-4" d="M150.21,0,138,20.86h23.82Zm-.06,4.39L158,18.61H141.83Z"/><path class="cls-4" d="M12.24,0,0,20.85H23.8Zm-.05,4.39,7.88,14.2H3.85Z"/></g></g></svg>